<mxfile host="app.diagrams.net" modified="2021-07-15T05:41:03.186Z" agent="5.0 (Windows NT 10.0; Win64; x64) AppleWebKit/537.36 (KHTML, like Gecko) Chrome/91.0.4472.124 Safari/537.36" etag="XHCdcoLWw4d0CXH7cO7L" version="14.8.6" type="github">
  <diagram id="Eb4VLoewzdPSoxYm1Hey" name="Page-1">
    <mxGraphModel dx="1038" dy="539" grid="1" gridSize="10" guides="1" tooltips="1" connect="1" arrows="1" fold="1" page="1" pageScale="1" pageWidth="850" pageHeight="1100" math="0" shadow="0">
      <root>
        <mxCell id="0" />
        <mxCell id="1" parent="0" />
        <mxCell id="2OjTadYXpMEuNKBwvvbD-39" style="edgeStyle=orthogonalEdgeStyle;rounded=0;orthogonalLoop=1;jettySize=auto;html=1;exitX=0.5;exitY=1;exitDx=0;exitDy=0;" edge="1" parent="1" source="2OjTadYXpMEuNKBwvvbD-2" target="2OjTadYXpMEuNKBwvvbD-37">
          <mxGeometry relative="1" as="geometry" />
        </mxCell>
        <mxCell id="2OjTadYXpMEuNKBwvvbD-2" value="Collect data from sensors" style="rounded=1;whiteSpace=wrap;html=1;" vertex="1" parent="1">
          <mxGeometry x="310" y="440" width="120" height="60" as="geometry" />
        </mxCell>
        <mxCell id="2OjTadYXpMEuNKBwvvbD-3" value="Send Data to our main server" style="rounded=1;whiteSpace=wrap;html=1;" vertex="1" parent="1">
          <mxGeometry x="310" y="610" width="120" height="60" as="geometry" />
        </mxCell>
        <mxCell id="2OjTadYXpMEuNKBwvvbD-14" style="edgeStyle=orthogonalEdgeStyle;rounded=0;orthogonalLoop=1;jettySize=auto;html=1;exitX=1;exitY=0.5;exitDx=0;exitDy=0;entryX=0.5;entryY=0;entryDx=0;entryDy=0;" edge="1" parent="1" source="2OjTadYXpMEuNKBwvvbD-8" target="2OjTadYXpMEuNKBwvvbD-13">
          <mxGeometry relative="1" as="geometry" />
        </mxCell>
        <mxCell id="2OjTadYXpMEuNKBwvvbD-8" value="Above set value" style="rhombus;whiteSpace=wrap;html=1;" vertex="1" parent="1">
          <mxGeometry x="330" y="810" width="80" height="80" as="geometry" />
        </mxCell>
        <mxCell id="2OjTadYXpMEuNKBwvvbD-10" value="save data &amp;amp; Create Notification" style="rounded=1;whiteSpace=wrap;html=1;" vertex="1" parent="1">
          <mxGeometry x="180" y="870" width="120" height="60" as="geometry" />
        </mxCell>
        <mxCell id="2OjTadYXpMEuNKBwvvbD-12" value="" style="endArrow=classic;html=1;exitX=0;exitY=0.5;exitDx=0;exitDy=0;entryX=0.5;entryY=0;entryDx=0;entryDy=0;" edge="1" parent="1" source="2OjTadYXpMEuNKBwvvbD-8" target="2OjTadYXpMEuNKBwvvbD-10">
          <mxGeometry width="50" height="50" relative="1" as="geometry">
            <mxPoint x="440" y="890" as="sourcePoint" />
            <mxPoint x="490" y="840" as="targetPoint" />
            <Array as="points">
              <mxPoint x="240" y="850" />
            </Array>
          </mxGeometry>
        </mxCell>
        <mxCell id="2OjTadYXpMEuNKBwvvbD-13" value="Just save the data for user" style="rounded=1;whiteSpace=wrap;html=1;" vertex="1" parent="1">
          <mxGeometry x="420" y="870" width="120" height="60" as="geometry" />
        </mxCell>
        <mxCell id="2OjTadYXpMEuNKBwvvbD-17" value="User" style="rounded=0;whiteSpace=wrap;html=1;" vertex="1" parent="1">
          <mxGeometry x="60" y="190" width="120" height="90" as="geometry" />
        </mxCell>
        <mxCell id="2OjTadYXpMEuNKBwvvbD-21" style="edgeStyle=orthogonalEdgeStyle;rounded=0;orthogonalLoop=1;jettySize=auto;html=1;" edge="1" parent="1" source="2OjTadYXpMEuNKBwvvbD-18" target="2OjTadYXpMEuNKBwvvbD-19">
          <mxGeometry relative="1" as="geometry" />
        </mxCell>
        <mxCell id="2OjTadYXpMEuNKBwvvbD-18" value="Central Server" style="rounded=1;whiteSpace=wrap;html=1;" vertex="1" parent="1">
          <mxGeometry x="490" y="200" width="120" height="60" as="geometry" />
        </mxCell>
        <mxCell id="2OjTadYXpMEuNKBwvvbD-22" style="edgeStyle=orthogonalEdgeStyle;rounded=0;orthogonalLoop=1;jettySize=auto;html=1;" edge="1" parent="1" source="2OjTadYXpMEuNKBwvvbD-19" target="2OjTadYXpMEuNKBwvvbD-17">
          <mxGeometry relative="1" as="geometry">
            <Array as="points">
              <mxPoint x="260" y="235" />
              <mxPoint x="260" y="235" />
            </Array>
          </mxGeometry>
        </mxCell>
        <mxCell id="2OjTadYXpMEuNKBwvvbD-19" value="Sub Server" style="rounded=0;whiteSpace=wrap;html=1;" vertex="1" parent="1">
          <mxGeometry x="300" y="200" width="120" height="60" as="geometry" />
        </mxCell>
        <mxCell id="2OjTadYXpMEuNKBwvvbD-23" value="" style="endArrow=none;html=1;exitX=0.397;exitY=1.043;exitDx=0;exitDy=0;exitPerimeter=0;entryX=0.437;entryY=1.03;entryDx=0;entryDy=0;entryPerimeter=0;" edge="1" parent="1" source="2OjTadYXpMEuNKBwvvbD-17" target="2OjTadYXpMEuNKBwvvbD-19">
          <mxGeometry width="50" height="50" relative="1" as="geometry">
            <mxPoint x="400" y="390" as="sourcePoint" />
            <mxPoint x="450" y="340" as="targetPoint" />
            <Array as="points">
              <mxPoint x="108" y="320" />
              <mxPoint x="352" y="320" />
            </Array>
          </mxGeometry>
        </mxCell>
        <mxCell id="2OjTadYXpMEuNKBwvvbD-28" value="Forecase Details" style="edgeLabel;html=1;align=center;verticalAlign=middle;resizable=0;points=[];" vertex="1" connectable="0" parent="2OjTadYXpMEuNKBwvvbD-23">
          <mxGeometry x="-0.1454" relative="1" as="geometry">
            <mxPoint as="offset" />
          </mxGeometry>
        </mxCell>
        <mxCell id="2OjTadYXpMEuNKBwvvbD-26" value="" style="endArrow=none;html=1;entryX=0.403;entryY=-0.063;entryDx=0;entryDy=0;entryPerimeter=0;" edge="1" parent="1" target="2OjTadYXpMEuNKBwvvbD-19">
          <mxGeometry width="50" height="50" relative="1" as="geometry">
            <mxPoint x="110" y="190" as="sourcePoint" />
            <mxPoint x="110" y="140" as="targetPoint" />
            <Array as="points">
              <mxPoint x="110" y="120" />
              <mxPoint x="348" y="120" />
            </Array>
          </mxGeometry>
        </mxCell>
        <mxCell id="2OjTadYXpMEuNKBwvvbD-29" value="&lt;span style=&quot;font-size: 12px ; background-color: rgb(248 , 249 , 250)&quot;&gt;User Details&lt;/span&gt;" style="edgeLabel;html=1;align=center;verticalAlign=middle;resizable=0;points=[];" vertex="1" connectable="0" parent="2OjTadYXpMEuNKBwvvbD-26">
          <mxGeometry x="-0.085" y="3" relative="1" as="geometry">
            <mxPoint as="offset" />
          </mxGeometry>
        </mxCell>
        <mxCell id="2OjTadYXpMEuNKBwvvbD-31" value="" style="endArrow=none;html=1;exitX=0.123;exitY=1.033;exitDx=0;exitDy=0;exitPerimeter=0;entryX=0.75;entryY=1;entryDx=0;entryDy=0;" edge="1" parent="1" source="2OjTadYXpMEuNKBwvvbD-17" target="2OjTadYXpMEuNKBwvvbD-19">
          <mxGeometry width="50" height="50" relative="1" as="geometry">
            <mxPoint x="400" y="390" as="sourcePoint" />
            <mxPoint x="450" y="340" as="targetPoint" />
            <Array as="points">
              <mxPoint x="75" y="380" />
              <mxPoint x="390" y="380" />
            </Array>
          </mxGeometry>
        </mxCell>
        <mxCell id="2OjTadYXpMEuNKBwvvbD-34" value="City Option selected" style="edgeLabel;html=1;align=center;verticalAlign=middle;resizable=0;points=[];" vertex="1" connectable="0" parent="2OjTadYXpMEuNKBwvvbD-31">
          <mxGeometry x="-0.1579" y="1" relative="1" as="geometry">
            <mxPoint as="offset" />
          </mxGeometry>
        </mxCell>
        <mxCell id="2OjTadYXpMEuNKBwvvbD-32" value="" style="endArrow=none;html=1;exitX=0.157;exitY=-0.024;exitDx=0;exitDy=0;exitPerimeter=0;entryX=0.75;entryY=0;entryDx=0;entryDy=0;" edge="1" parent="1" source="2OjTadYXpMEuNKBwvvbD-17" target="2OjTadYXpMEuNKBwvvbD-19">
          <mxGeometry width="50" height="50" relative="1" as="geometry">
            <mxPoint x="400" y="390" as="sourcePoint" />
            <mxPoint x="450" y="340" as="targetPoint" />
            <Array as="points">
              <mxPoint x="79" y="100" />
              <mxPoint x="390" y="100" />
            </Array>
          </mxGeometry>
        </mxCell>
        <mxCell id="2OjTadYXpMEuNKBwvvbD-33" value="Input Email &amp;amp; Password" style="edgeLabel;html=1;align=center;verticalAlign=middle;resizable=0;points=[];" vertex="1" connectable="0" parent="2OjTadYXpMEuNKBwvvbD-32">
          <mxGeometry x="-0.333" y="2" relative="1" as="geometry">
            <mxPoint x="86" as="offset" />
          </mxGeometry>
        </mxCell>
        <mxCell id="2OjTadYXpMEuNKBwvvbD-36" style="edgeStyle=orthogonalEdgeStyle;rounded=0;orthogonalLoop=1;jettySize=auto;html=1;entryX=1;entryY=0.5;entryDx=0;entryDy=0;" edge="1" parent="1" source="2OjTadYXpMEuNKBwvvbD-35" target="2OjTadYXpMEuNKBwvvbD-18">
          <mxGeometry relative="1" as="geometry" />
        </mxCell>
        <mxCell id="2OjTadYXpMEuNKBwvvbD-35" value="Weather Data Provider" style="rounded=0;whiteSpace=wrap;html=1;" vertex="1" parent="1">
          <mxGeometry x="670" y="200" width="120" height="60" as="geometry" />
        </mxCell>
        <mxCell id="2OjTadYXpMEuNKBwvvbD-38" style="edgeStyle=orthogonalEdgeStyle;rounded=0;orthogonalLoop=1;jettySize=auto;html=1;exitX=0.5;exitY=1;exitDx=0;exitDy=0;" edge="1" parent="1" source="2OjTadYXpMEuNKBwvvbD-37" target="2OjTadYXpMEuNKBwvvbD-3">
          <mxGeometry relative="1" as="geometry" />
        </mxCell>
        <mxCell id="2OjTadYXpMEuNKBwvvbD-37" value="Validate and clean data" style="rounded=0;whiteSpace=wrap;html=1;" vertex="1" parent="1">
          <mxGeometry x="310" y="530" width="120" height="60" as="geometry" />
        </mxCell>
      </root>
    </mxGraphModel>
  </diagram>
</mxfile>
